<?xml version="1.0" encoding="utf-8"?>
<!-- Generator: Adobe Illustrator 14.0.0, SVG Export Plug-In . SVG Version: 6.00 Build 43363)  -->
<!DOCTYPE svg PUBLIC "-//W3C//DTD SVG 1.1//EN" "http://www.w3.org/Graphics/SVG/1.1/DTD/svg11.dtd">
<svg version="1.1" id="Layer_1" xmlns="http://www.w3.org/2000/svg" xmlns:xlink="http://www.w3.org/1999/xlink" x="0px" y="0px"
	 width="504px" height="504px" viewBox="0 0 504 504" enable-background="new 0 0 504 504" xml:space="preserve">
<g id="ugJgHT_1_">
	<g>
		<g>
			<path id="train" fill-rule="evenodd" clip-rule="evenodd" d="M244,133c11.917,17.479-9.735,37.667-29,30c-7.824,5.802-27.597,8.88-38,3
				c-6.818,13.723-49.907,8.65-47,29c0.897,6.28,5.992,4.331,10,9c-5.083,8.802-1.296,20.622-3,32c0.247,1.086,1.988,0.678,2,2
				c4.315,4.352,16.44,0.894,24,2c0.181-6.182-1.603-6.24-2-13c5.681-7.706,25.688-8.39,30,1c0.018,4.351-3.092,5.575-2,11
				c15.669,2.331,35.665,0.335,53,1c4.136-9.197,0.88-25.787,5-35c21.681,0.653,45.981-1.315,66,1c0,2.667,0,5.333,0,8
				c-8.74,0.593-19.899-1.232-27,1c-2.632,9.167-1.688,23.053-3,38c10.39,2.277,24.959,0.375,37,1c0.064,15.401-0.088,35.907,0,48
				c-2.038,2.295-8.305,0.362-12,1c20.431,42.743-58.015,48.025-40,1c-3.356-2.311-10.983-0.351-16-1
				c18.34,45.171-58.364,45.535-41,1c-3.025-2.308-10.314-0.353-15-1c17.11,43.696-58.309,44.512-42,1
				c-3.025-2.308-10.314-0.353-15-1c16.533,41.508-55.265,47.662-42,2c-1.918-3.415-9.162-1.505-14-2c0-4.333,0-8.667,0-13
				c3.333,0,6.667,0,10,0c-8.373-9.984-8.333-38.945,0-49c7.862-0.116,11.983-1.097,19,0c10.667-8.382-2.355-35.435,6-42
				c-4.193-5.474-2.832-16.501-3-26c6.201-9.799,15.239-16.761,26-22c-0.694-5.694,1.694-8.306,1-14
				c3.116-6.891,12.205-10.501,21-18c10.194-8.692,16.357-27.403,33-15C217.984,86.404,262.9,105.782,244,133z"/>
		</g>
	</g>
</g>
</svg>
